<?xml version="1.0" encoding="iso-8859-1"?>
<!-- Uploaded to: SVG Repo, www.svgrepo.com, Generator: SVG Repo Mixer Tools -->
<svg height="800px" width="800px" version="1.1" id="Layer_1" xmlns="http://www.w3.org/2000/svg" xmlns:xlink="http://www.w3.org/1999/xlink" 
	 viewBox="0 0 512 512" xml:space="preserve">
<g transform="translate(1 1)">
	<g>
		<path style="fill:#FFE100;" d="M20.333,92.867c-3.413,0-5.973-1.707-7.68-5.12c-1.707-4.267,0-9.387,3.413-11.093L50.2,59.587
			c4.267-1.707,9.387,0,11.093,3.413c1.707,4.267,0,9.387-3.413,11.093L23.747,91.16C22.893,92.867,22.04,92.867,20.333,92.867z"/>
		<path style="fill:#FFE100;" d="M20.333,203.8c-5.12,0-8.533-3.413-8.533-8.533V84.333c0-5.12,3.413-8.533,8.533-8.533
			s8.533,3.413,8.533,8.533v110.933C28.867,200.387,25.453,203.8,20.333,203.8z"/>
		<polygon style="fill:#FFE100;" points="80.067,485.4 63,485.4 45.933,434.2 97.133,434.2 		"/>
	</g>
	<path style="fill:#63D3FD;" d="M88.6,50.2H54.467V20.333c0-6.827,5.973-12.8,12.8-12.8H75.8c6.827,0,12.8,5.973,12.8,12.8V50.2z"/>
	<polygon style="fill:#FFE100;" points="45.933,434.2 97.133,434.2 97.133,50.2 45.933,50.2 	"/>
	<polygon style="fill:#63D3FD;" points="45.933,434.2 97.133,434.2 97.133,297.667 45.933,297.667 	"/>
	<g>
		<path style="fill:#FFE100;" d="M173.933,75.8H139.8c-5.12,0-8.533-3.413-8.533-8.533s3.413-8.533,8.533-8.533h34.133
			c5.12,0,8.533,3.413,8.533,8.533S179.053,75.8,173.933,75.8z"/>
		<path style="fill:#FFE100;" d="M173.933,109.933H139.8c-5.12,0-8.533-3.413-8.533-8.533c0-5.12,3.413-8.533,8.533-8.533h34.133
			c5.12,0,8.533,3.413,8.533,8.533C182.467,106.52,179.053,109.933,173.933,109.933z"/>
		<path style="fill:#FFE100;" d="M173.933,144.067H139.8c-5.12,0-8.533-3.413-8.533-8.533S134.68,127,139.8,127h34.133
			c5.12,0,8.533,3.413,8.533,8.533S179.053,144.067,173.933,144.067z"/>
		<path style="fill:#FFE100;" d="M173.933,178.2H139.8c-5.12,0-8.533-3.413-8.533-8.533c0-5.12,3.413-8.533,8.533-8.533h34.133
			c5.12,0,8.533,3.413,8.533,8.533C182.467,174.787,179.053,178.2,173.933,178.2z"/>
		<path style="fill:#FFE100;" d="M173.933,212.333H139.8c-5.12,0-8.533-3.413-8.533-8.533c0-5.12,3.413-8.533,8.533-8.533h34.133
			c5.12,0,8.533,3.413,8.533,8.533C182.467,208.92,179.053,212.333,173.933,212.333z"/>
		<path style="fill:#FFE100;" d="M173.933,246.467H139.8c-5.12,0-8.533-3.413-8.533-8.533c0-5.12,3.413-8.533,8.533-8.533h34.133
			c5.12,0,8.533,3.413,8.533,8.533C182.467,243.053,179.053,246.467,173.933,246.467z"/>
		<path style="fill:#FFE100;" d="M173.933,280.6H139.8c-5.12,0-8.533-3.413-8.533-8.533s3.413-8.533,8.533-8.533h34.133
			c5.12,0,8.533,3.413,8.533,8.533S179.053,280.6,173.933,280.6z"/>
		<path style="fill:#FFE100;" d="M173.933,314.733H139.8c-5.12,0-8.533-3.413-8.533-8.533s3.413-8.533,8.533-8.533h34.133
			c5.12,0,8.533,3.413,8.533,8.533S179.053,314.733,173.933,314.733z"/>
		<path style="fill:#FFE100;" d="M173.933,348.867H139.8c-5.12,0-8.533-3.413-8.533-8.533c0-5.12,3.413-8.533,8.533-8.533h34.133
			c5.12,0,8.533,3.413,8.533,8.533C182.467,345.453,179.053,348.867,173.933,348.867z"/>
		<path style="fill:#FFE100;" d="M173.933,383H139.8c-5.12,0-8.533-3.413-8.533-8.533c0-5.12,3.413-8.533,8.533-8.533h34.133
			c5.12,0,8.533,3.413,8.533,8.533C182.467,379.587,179.053,383,173.933,383z"/>
		<path style="fill:#FFE100;" d="M173.933,417.133H139.8c-5.12,0-8.533-3.413-8.533-8.533c0-5.12,3.413-8.533,8.533-8.533h34.133
			c5.12,0,8.533,3.413,8.533,8.533C182.467,413.72,179.053,417.133,173.933,417.133z"/>
		<path style="fill:#FFE100;" d="M191,434.2c-19.627,0-35.84,17.067-34.133,37.547c1.707,17.92,17.92,30.72,35.84,30.72H447V434.2
			H191z"/>
		<path style="fill:#FFE100;" d="M447,434.2H191c-18.773,0-34.133,15.36-34.133,34.133V41.667c0-18.773,15.36-34.133,34.133-34.133
			h307.2v51.2c-28.16,0-51.2,23.04-51.2,51.2V434.2z"/>
	</g>
	<path style="fill:#00DA6C;" d="M394.093,267.8c-5.973-11.947-29.013-25.6-29.013-25.6c-5.12-2.56-11.093-3.413-14.507,1.707
		c0,0-7.68,9.387-9.387,10.24c-8.533,5.973-17.067,5.973-24.747-2.56l-18.773-18.773l-18.773-18.773
		c-8.533-8.533-8.533-16.213-2.56-24.747c1.707-1.707,10.24-9.387,10.24-9.387c5.12-2.56,5.12-9.387,1.707-14.507
		c0,0-13.653-23.04-25.6-29.013c-5.12-2.56-11.093-1.707-15.36,2.56l-8.533,8.533c-26.453,26.453-13.653,56.32,12.8,82.773
		l23.893,23.893l23.893,23.893c26.453,26.453,56.32,39.253,82.773,12.8l8.533-8.533C395.8,279.747,396.653,272.92,394.093,267.8"/>
	<g>
		<polygon style="fill:#63D3FD;" points="447,161.133 498.2,161.133 498.2,109.933 447,109.933 		"/>
		<polygon style="fill:#63D3FD;" points="447,212.333 498.2,212.333 498.2,161.133 447,161.133 		"/>
		<polygon style="fill:#63D3FD;" points="447,263.533 498.2,263.533 498.2,212.333 447,212.333 		"/>
		<polygon style="fill:#63D3FD;" points="447,314.733 498.2,314.733 498.2,263.533 447,263.533 		"/>
		<polygon style="fill:#63D3FD;" points="447,365.933 498.2,365.933 498.2,314.733 447,314.733 		"/>
		<polygon style="fill:#63D3FD;" points="447,417.133 498.2,417.133 498.2,365.933 447,365.933 		"/>
		<path style="fill:#63D3FD;" d="M473.453,468.333H447v-51.2h51.2v26.453C498.2,457.24,487.107,468.333,473.453,468.333"/>
		<path style="fill:#63D3FD;" d="M447,109.933h51.2v-51.2C470.04,58.733,447,81.773,447,109.933"/>
	</g>
	<polygon style="fill:#FFA800;" points="481.133,58.733 498.2,58.733 498.2,7.533 481.133,7.533 	"/>
	<g>
		<polygon style="fill:#3DB9F9;" points="481.133,161.133 498.2,161.133 498.2,109.933 481.133,109.933 		"/>
		<polygon style="fill:#3DB9F9;" points="481.133,212.333 498.2,212.333 498.2,161.133 481.133,161.133 		"/>
		<polygon style="fill:#3DB9F9;" points="481.133,263.533 498.2,263.533 498.2,212.333 481.133,212.333 		"/>
		<polygon style="fill:#3DB9F9;" points="481.133,314.733 498.2,314.733 498.2,263.533 481.133,263.533 		"/>
		<polygon style="fill:#3DB9F9;" points="481.133,365.933 498.2,365.933 498.2,314.733 481.133,314.733 		"/>
		<polygon style="fill:#3DB9F9;" points="481.133,417.133 498.2,417.133 498.2,365.933 481.133,365.933 		"/>
		<path style="fill:#3DB9F9;" d="M481.133,417.133v26.453c0,13.653-11.093,24.747-24.747,24.747h17.067
			c13.653,0,24.747-11.093,24.747-24.747v-26.453H481.133z"/>
		<path style="fill:#3DB9F9;" d="M481.133,61.293v48.64H498.2v-51.2C492.227,58.733,486.253,59.587,481.133,61.293"/>
	</g>
	<path d="M447,511H192.707c-22.187,0-41.813-17.067-43.52-38.4c-0.853-11.947,2.56-23.893,11.093-32.427
		c7.68-8.533,19.627-13.653,31.573-13.653h256c5.12,0,8.533,3.413,8.533,8.533v68.267C455.533,507.587,452.12,511,447,511z
		 M191,442.733c-6.827,0-14.507,3.413-18.773,8.533c-5.12,5.12-6.827,12.8-6.827,19.627c0.853,12.8,12.8,23.04,27.307,23.04h245.76
		v-51.2H191z"/>
	<path d="M404.333,476.867h-204.8c-5.12,0-8.533-3.413-8.533-8.533c0-5.12,3.413-8.533,8.533-8.533h204.8
		c5.12,0,8.533,3.413,8.533,8.533C412.867,473.453,409.453,476.867,404.333,476.867z"/>
	<path d="M173.933,67.267H139.8c-5.12,0-8.533-3.413-8.533-8.533S134.68,50.2,139.8,50.2h34.133c5.12,0,8.533,3.413,8.533,8.533
		S179.053,67.267,173.933,67.267z"/>
	<path d="M173.933,101.4H139.8c-5.12,0-8.533-3.413-8.533-8.533s3.413-8.533,8.533-8.533h34.133c5.12,0,8.533,3.413,8.533,8.533
		S179.053,101.4,173.933,101.4z"/>
	<path d="M173.933,135.533H139.8c-5.12,0-8.533-3.413-8.533-8.533s3.413-8.533,8.533-8.533h34.133c5.12,0,8.533,3.413,8.533,8.533
		S179.053,135.533,173.933,135.533z"/>
	<path d="M173.933,169.667H139.8c-5.12,0-8.533-3.413-8.533-8.533c0-5.12,3.413-8.533,8.533-8.533h34.133
		c5.12,0,8.533,3.413,8.533,8.533C182.467,166.253,179.053,169.667,173.933,169.667z"/>
	<path d="M173.933,203.8H139.8c-5.12,0-8.533-3.413-8.533-8.533c0-5.12,3.413-8.533,8.533-8.533h34.133
		c5.12,0,8.533,3.413,8.533,8.533C182.467,200.387,179.053,203.8,173.933,203.8z"/>
	<path d="M173.933,237.933H139.8c-5.12,0-8.533-3.413-8.533-8.533c0-5.12,3.413-8.533,8.533-8.533h34.133
		c5.12,0,8.533,3.413,8.533,8.533C182.467,234.52,179.053,237.933,173.933,237.933z"/>
	<path d="M173.933,272.067H139.8c-5.12,0-8.533-3.413-8.533-8.533c0-5.12,3.413-8.533,8.533-8.533h34.133
		c5.12,0,8.533,3.413,8.533,8.533C182.467,268.653,179.053,272.067,173.933,272.067z"/>
	<path d="M173.933,306.2H139.8c-5.12,0-8.533-3.413-8.533-8.533s3.413-8.533,8.533-8.533h34.133c5.12,0,8.533,3.413,8.533,8.533
		S179.053,306.2,173.933,306.2z"/>
	<path d="M173.933,340.333H139.8c-5.12,0-8.533-3.413-8.533-8.533s3.413-8.533,8.533-8.533h34.133c5.12,0,8.533,3.413,8.533,8.533
		S179.053,340.333,173.933,340.333z"/>
	<path d="M173.933,374.467H139.8c-5.12,0-8.533-3.413-8.533-8.533s3.413-8.533,8.533-8.533h34.133c5.12,0,8.533,3.413,8.533,8.533
		S179.053,374.467,173.933,374.467z"/>
	<path d="M173.933,408.6H139.8c-5.12,0-8.533-3.413-8.533-8.533s3.413-8.533,8.533-8.533h34.133c5.12,0,8.533,3.413,8.533,8.533
		S179.053,408.6,173.933,408.6z"/>
	<path d="M156.867,476.867c-5.12,0-8.533-3.413-8.533-8.533V41.667C148.333,17.773,167.107-1,191-1h307.2
		c5.12,0,8.533,3.413,8.533,8.533v51.2c0,5.12-3.413,8.533-8.533,8.533c-23.893,0-42.667,18.773-42.667,42.667V434.2
		c0,5.12-3.413,8.533-8.533,8.533H191c-14.507,0-25.6,11.093-25.6,25.6C165.4,473.453,161.987,476.867,156.867,476.867z M191,16.067
		c-14.507,0-25.6,11.093-25.6,25.6V434.2c6.827-5.12,16.213-8.533,25.6-8.533h247.467V109.933c0-29.867,22.187-54.613,51.2-58.88
		V16.067H191z"/>
	<path d="M498.2,169.667H447c-5.12,0-8.533-3.413-8.533-8.533v-51.2c0-5.12,3.413-8.533,8.533-8.533h51.2
		c5.12,0,8.533,3.413,8.533,8.533v51.2C506.733,166.253,503.32,169.667,498.2,169.667z M455.533,152.6h34.133v-34.133h-34.133V152.6
		z"/>
	<path d="M498.2,220.867H447c-5.12,0-8.533-3.413-8.533-8.533v-51.2c0-5.12,3.413-8.533,8.533-8.533h51.2
		c5.12,0,8.533,3.413,8.533,8.533v51.2C506.733,217.453,503.32,220.867,498.2,220.867z M455.533,203.8h34.133v-34.133h-34.133V203.8
		z"/>
	<path d="M498.2,272.067H447c-5.12,0-8.533-3.413-8.533-8.533v-51.2c0-5.12,3.413-8.533,8.533-8.533h51.2
		c5.12,0,8.533,3.413,8.533,8.533v51.2C506.733,268.653,503.32,272.067,498.2,272.067z M455.533,255h34.133v-34.133h-34.133V255z"/>
	<path d="M498.2,323.267H447c-5.12,0-8.533-3.413-8.533-8.533v-51.2c0-5.12,3.413-8.533,8.533-8.533h51.2
		c5.12,0,8.533,3.413,8.533,8.533v51.2C506.733,319.853,503.32,323.267,498.2,323.267z M455.533,306.2h34.133v-34.133h-34.133V306.2
		z"/>
	<path d="M498.2,374.467H447c-5.12,0-8.533-3.413-8.533-8.533v-51.2c0-5.12,3.413-8.533,8.533-8.533h51.2
		c5.12,0,8.533,3.413,8.533,8.533v51.2C506.733,371.053,503.32,374.467,498.2,374.467z M455.533,357.4h34.133v-34.133h-34.133V357.4
		z"/>
	<path d="M498.2,425.667H447c-5.12,0-8.533-3.413-8.533-8.533v-51.2c0-5.12,3.413-8.533,8.533-8.533h51.2
		c5.12,0,8.533,3.413,8.533,8.533v51.2C506.733,422.253,503.32,425.667,498.2,425.667z M455.533,408.6h34.133v-34.133h-34.133V408.6
		z"/>
	<path d="M473.453,476.867H447c-5.12,0-8.533-3.413-8.533-8.533v-51.2c0-5.12,3.413-8.533,8.533-8.533h51.2
		c5.12,0,8.533,3.413,8.533,8.533v26.453C506.733,462.36,492.227,476.867,473.453,476.867z M455.533,459.8h17.92
		c8.533,0,16.213-7.68,16.213-16.213v-17.92h-34.133V459.8z"/>
	<path d="M498.2,118.467H447c-5.12,0-8.533-3.413-8.533-8.533c0-33.28,26.453-59.733,59.733-59.733c5.12,0,8.533,3.413,8.533,8.533
		v51.2C506.733,115.053,503.32,118.467,498.2,118.467z M456.387,101.4h33.28V68.12C472.6,71.533,459.8,84.333,456.387,101.4z"/>
	<path d="M352.28,314.733L352.28,314.733c-17.92,0-37.547-10.24-57.173-29.867l-48.64-48.64c-46.933-46.933-28.16-79.36-12.8-94.72
		l8.533-8.533c6.827-6.827,17.067-7.68,25.6-3.413c13.653,6.827,27.307,29.867,29.013,32.427c3.413,5.12,4.267,11.093,2.56,16.213
		c-0.853,4.267-3.413,6.827-6.827,9.387c-3.413,2.56-7.68,6.827-8.533,7.68c-3.413,5.12-3.413,8.533,1.707,13.653l37.547,37.547
		c4.267,4.267,6.827,4.267,7.68,4.267c1.707,0,4.267-0.853,6.827-2.56c0.853-0.853,4.267-5.12,6.827-8.533
		c5.12-7.68,16.213-10.24,25.6-4.267c2.56,1.707,25.6,15.36,32.427,29.013c4.267,8.533,2.56,18.773-3.413,25.6l-8.533,8.533
		C378.733,308.76,365.933,314.733,352.28,314.733z M256.707,144.067c-0.853,0-2.56,0.853-3.413,0.853l-8.533,8.533
		c-6.827,6.827-29.013,29.013,12.8,70.827l48.64,48.64c16.213,16.213,31.573,24.747,45.227,24.747l0,0
		c9.387,0,17.067-4.267,25.6-11.947l8.533-8.533c1.707-1.707,1.707-3.413,0.853-5.12c-3.413-6.827-17.92-17.067-25.6-22.187
		c-0.853-0.853-2.56-0.853-2.56-0.853l-0.853,0.853c-8.533,10.24-10.24,11.093-11.093,11.947c-12.8,8.533-24.747,6.827-35.84-3.413
		l-37.547-37.547c-10.24-10.24-11.947-23.04-3.413-35.84c0.853-0.853,1.707-2.56,11.947-11.093l0.853-0.853c0,0,0-0.853-0.853-2.56
		c-5.12-7.68-14.507-22.187-22.187-25.6C258.413,144.067,257.56,144.067,256.707,144.067z"/>
	<path d="M97.133,442.733h-51.2c-5.12,0-8.533-3.413-8.533-8.533v-384c0-5.12,3.413-8.533,8.533-8.533h51.2
		c5.12,0,8.533,3.413,8.533,8.533v384C105.667,439.32,102.253,442.733,97.133,442.733z M54.467,425.667H88.6V58.733H54.467V425.667z
		"/>
	<path d="M88.6,58.733H54.467c-5.12,0-8.533-3.413-8.533-8.533V20.333C45.933,8.387,55.32-1,67.267-1H75.8
		c11.947,0,21.333,9.387,21.333,21.333V50.2C97.133,55.32,93.72,58.733,88.6,58.733z M63,41.667h17.067V20.333
		c0-2.56-1.707-4.267-4.267-4.267h-8.533c-2.56,0-4.267,1.707-4.267,4.267V41.667z"/>
	<path d="M11.8,84.333c-3.413,0-5.973-1.707-7.68-5.12c-1.707-4.267,0-9.387,3.413-11.093l34.133-17.067
		c4.267-1.707,9.387,0,11.093,3.413c1.707,3.413,0,9.387-3.413,11.093L15.213,82.627C14.36,84.333,13.507,84.333,11.8,84.333z"/>
	<path d="M11.8,195.267c-5.12,0-8.533-3.413-8.533-8.533V75.8c0-5.12,3.413-8.533,8.533-8.533s8.533,3.413,8.533,8.533v110.933
		C20.333,191.853,16.92,195.267,11.8,195.267z"/>
	<path d="M80.067,493.933H63c-3.413,0-6.827-2.56-7.68-5.973l-17.067-51.2c-1.707-2.56-0.853-5.12,0.853-7.68
		c1.707-2.56,4.267-3.413,6.827-3.413h51.2c2.56,0,5.12,1.707,6.827,3.413c1.707,1.707,1.707,5.12,0.853,7.68l-17.067,51.2
		C86.893,491.373,83.48,493.933,80.067,493.933z M68.973,476.867h5.12l11.093-34.133H57.88L68.973,476.867z"/>
	<path d="M71.533,511c-5.12,0-8.533-3.413-8.533-8.533V485.4c0-5.12,3.413-8.533,8.533-8.533c5.12,0,8.533,3.413,8.533,8.533v17.067
		C80.067,507.587,76.653,511,71.533,511z"/>
	<path d="M97.133,442.733h-51.2c-5.12,0-8.533-3.413-8.533-8.533V297.667c0-5.12,3.413-8.533,8.533-8.533h51.2
		c5.12,0,8.533,3.413,8.533,8.533V434.2C105.667,439.32,102.253,442.733,97.133,442.733z M54.467,425.667H88.6V306.2H54.467V425.667
		z"/>
	<path d="M97.133,408.6h-51.2c-5.12,0-8.533-3.413-8.533-8.533s3.413-8.533,8.533-8.533h51.2c5.12,0,8.533,3.413,8.533,8.533
		S102.253,408.6,97.133,408.6z"/>
	<path d="M97.133,374.467h-51.2c-5.12,0-8.533-3.413-8.533-8.533s3.413-8.533,8.533-8.533h51.2c5.12,0,8.533,3.413,8.533,8.533
		S102.253,374.467,97.133,374.467z"/>
	<path d="M97.133,340.333h-51.2c-5.12,0-8.533-3.413-8.533-8.533s3.413-8.533,8.533-8.533h51.2c5.12,0,8.533,3.413,8.533,8.533
		S102.253,340.333,97.133,340.333z"/>
</g>
</svg>